<?xml version="1.0" standalone="no"?>
<!DOCTYPE svg PUBLIC "-//W3C//DTD SVG 20010904//EN"
 "http://www.w3.org/TR/2001/REC-SVG-20010904/DTD/svg10.dtd">
<svg version="1.0" xmlns="http://www.w3.org/2000/svg"
 width="1743.000000pt" height="216.000000pt" viewBox="0 0 1743.000000 216.000000"
 preserveAspectRatio="xMidYMid meet">

<g transform="translate(0.000000,216.000000) scale(0.100000,-0.100000)"
fill="#000000" stroke="none">
<path d="M12145 1913 c-2240 -37 -4245 -153 -5535 -318 -959 -123 -1625 -340
-2175 -708 -149 -100 -325 -237 -414 -323 -82 -80 -84 -83 -78 -120 8 -52 46
-84 96 -84 48 0 289 25 436 45 216 30 422 70 720 139 122 28 174 35 280 38
l130 3 5 180 5 180 183 3 182 2 0 70 0 70 -355 0 -355 0 -2 -167 -3 -168 -80
-23 c-173 -49 -847 -173 -862 -158 -7 7 134 109 266 193 454 291 1111 508
1861 617 1462 212 4276 356 6700 344 421 -2 773 -8 783 -12 17 -8 -179 -125
-648 -388 -262 -147 -784 -404 -798 -393 -129 97 -176 110 -400 110 l-178 0 7
30 c3 16 8 33 11 38 2 4 123 7 269 7 l264 0 0 80 0 80 -308 0 c-170 0 -350 -3
-400 -6 l-90 -7 -42 -149 c-23 -83 -44 -165 -47 -183 l-5 -33 88 -8 c133 -11
205 -8 246 10 47 20 166 21 213 1 39 -16 55 -46 55 -104 0 -110 -200 -141
-286 -44 l-31 35 -158 -11 c-88 -6 -163 -15 -168 -20 -15 -15 67 -95 128 -125
89 -43 180 -58 360 -59 233 -2 293 14 458 126 31 20 114 63 184 96 192 88 452
220 646 327 382 213 806 457 852 492 94 71 125 179 67 235 -26 25 -38 28 -152
37 -293 23 -552 30 -1150 28 -349 -1 -698 -3 -775 -5z"/>
<path d="M6567 1090 c-20 -5 -59 -21 -87 -35 -27 -14 -52 -25 -55 -25 -3 0 -5
14 -5 30 l0 30 -160 0 -160 0 0 -350 0 -350 175 0 175 0 0 115 c0 63 2 115 5
115 3 0 33 -9 67 -21 47 -15 87 -20 169 -21 168 0 282 42 337 124 24 37 27 51
27 128 0 78 -3 91 -28 129 -31 47 -99 99 -155 119 -45 17 -253 25 -305 12z
m99 -156 c42 -20 55 -42 56 -93 0 -49 -15 -77 -55 -98 -60 -31 -141 -19 -194
30 -25 23 -31 83 -12 118 29 55 134 76 205 43z"/>
<path d="M10643 1085 c-35 -8 -85 -26 -112 -40 -54 -30 -99 -81 -83 -97 5 -5
74 -13 153 -18 l144 -8 45 26 c40 24 55 27 132 26 82 -1 118 -12 118 -35 0
-13 -62 -26 -260 -54 -262 -37 -320 -57 -356 -127 -27 -52 4 -111 79 -150 37
-19 63 -22 212 -26 170 -4 210 1 296 34 45 17 46 17 67 -4 21 -21 32 -22 177
-22 l156 0 -17 33 c-13 24 -19 69 -23 187 -7 177 -12 192 -85 235 -73 43 -158
55 -381 54 -129 0 -222 -5 -262 -14z m397 -290 c0 -31 -24 -63 -58 -80 -45
-21 -157 -31 -194 -16 -34 13 -37 45 -6 62 26 14 239 58 251 52 4 -2 7 -10 7
-18z"/>
<path d="M7130 1082 c0 -5 14 -29 32 -53 18 -24 97 -134 175 -243 l143 -200
-22 -23 c-30 -32 -77 -43 -192 -43 -97 0 -98 0 -93 -22 4 -13 9 -42 13 -64 6
-41 6 -41 58 -48 158 -19 363 0 439 41 48 26 63 45 187 230 137 205 256 392
267 418 4 13 -19 15 -158 15 l-164 0 -79 -155 c-43 -85 -81 -155 -85 -155 -4
0 -43 69 -88 153 l-80 152 -177 3 c-97 1 -176 -1 -176 -6z"/>
<path d="M8230 840 l0 -250 98 -1 c203 -2 223 -1 230 6 4 3 8 82 10 175 l4
168 111 4 c62 2 115 2 120 0 4 -2 7 -82 7 -178 0 -132 3 -174 13 -174 27 -1
303 -1 315 -1 9 1 12 58 12 251 l0 250 -460 0 -460 0 0 -250z"/>
<path d="M9340 840 c0 -231 1 -250 18 -251 25 -1 114 -1 225 0 l97 1 0 174 0
174 113 4 c61 2 115 2 120 0 4 -2 7 -82 7 -178 l0 -174 48 -1 c70 -1 149 -1
225 0 l67 1 0 250 0 250 -460 0 -460 0 0 -250z"/>
</g>
</svg>
